<?xml version="1.0" encoding="iso-8859-1"?>
<!-- Generator: Adobe Illustrator 19.0.0, SVG Export Plug-In . SVG Version: 6.00 Build 0)  -->
<svg version="1.1" id="Capa_1" xmlns="http://www.w3.org/2000/svg" xmlns:xlink="http://www.w3.org/1999/xlink" x="0px" y="0px"
	 viewBox="0 0 477.867 477.867" style="enable-background:new 0 0 477.867 477.867;" xml:space="preserve">
<g>
	<g>
		<path d="M238.933,0C106.974,0,0,106.974,0,238.933s106.974,238.933,238.933,238.933s238.933-106.974,238.933-238.933
			S370.893,0,238.933,0z M387.953,387.533c-6.548,6.78-17.352,6.968-24.132,0.42c-0.142-0.138-0.282-0.278-0.42-0.42
			L238.933,263.066L114.466,387.533c-6.78,6.548-17.584,6.36-24.132-0.42c-6.388-6.614-6.388-17.099,0-23.713l124.467-124.467
			L90.334,114.466c-6.548-6.78-6.36-17.584,0.42-24.132c6.614-6.387,17.099-6.387,23.712,0l124.467,124.467L363.401,90.334
			c6.548-6.78,17.352-6.968,24.132-0.42c6.78,6.548,6.968,17.352,0.42,24.132c-0.137,0.142-0.277,0.282-0.42,0.42L263.066,238.933
			l124.467,124.467C394.313,369.949,394.501,380.753,387.953,387.533z"/>
	</g>
</g>
<g>
</g>
<g>
</g>
<g>
</g>
<g>
</g>
<g>
</g>
<g>
</g>
<g>
</g>
<g>
</g>
<g>
</g>
<g>
</g>
<g>
</g>
<g>
</g>
<g>
</g>
<g>
</g>
<g>
</g>
</svg>
