<?xml version="1.0"?>
<svg xmlns="http://www.w3.org/2000/svg" height="512px" viewBox="0 0 503.9167 503" width="512px" class=""><g><path d="m478.433594 160.257812c-6.375-2.960937-13.695313-3.148437-20.214844-.515624-2.539062 1.058593-4.886719 2.535156-6.9375 4.367187-21.335938-48.539063-59.757812-87.554687-107.96875-109.632813 1.839844-2.03125 3.332031-4.355468 4.410156-6.875 2.722656-6.460937 2.640625-13.761718-.226562-20.160156-2.867188-6.398437-8.261719-11.316406-14.898438-13.582031-51.074218-17.449219-106.429687-17.871094-157.761718-1.195313-6.660157 2.164063-12.121094 7.003907-15.070313 13.355469-2.949219 6.355469-3.121094 13.648438-.480469 20.132813 1.058594 2.542968 2.53125 4.890625 4.367188 6.941406-48.558594 21.34375-87.582032 59.78125-109.652344 108.011719-2.023438-1.855469-4.335938-3.363281-6.851562-4.453125-6.460938-2.726563-13.765626-2.644532-20.160157.222656-6.398437 2.867188-11.320312 8.261719-13.582031 14.898438-17.457031 51.074218-17.875 106.429687-1.199219 157.761718 2.15625 6.632813 6.960938 12.078125 13.277344 15.039063 3.296875 1.535156 6.894531 2.328125 10.53125 2.328125 3.308594-.011719 6.589844-.636719 9.671875-1.835938l.007812.023438c2.542969-1.054688 4.886719-2.53125 6.941407-4.363282 21.34375 48.550782 59.78125 87.570313 108.007812 109.644532-1.851562 2.019531-3.355469 4.335937-4.449219 6.855468-2.722656 6.457032-2.644531 13.761719.226563 20.160157 2.867187 6.394531 8.261719 11.316406 14.898437 13.578125 51.074219 17.453125 106.429688 17.871094 157.761719 1.199218 6.660157-2.167968 12.121094-7.007812 15.070313-13.359374 2.949218-6.351563 3.121094-13.644532.480468-20.128907-1.058593-2.542969-2.535156-4.890625-4.371093-6.941406 48.558593-21.34375 87.582031-59.78125 109.65625-108.011719 2.019531 1.855469 4.335937 3.359375 6.851562 4.453125 6.460938 2.726563 13.761719 2.644531 20.160157-.222656 6.398437-2.867187 11.316406-8.265625 13.582031-14.902344 17.453125-51.070312 17.875-106.429687 1.195312-157.761719-2.15625-6.628906-6.960937-12.070312-13.273437-15.03125zm-33.027344 36.382813c.894531 3.085937 1.84375 6.167969 2.585938 9.273437.144531.617188.257812 1.234376.402343 1.847657.972657 4.253906 1.800781 8.519531 2.488281 12.796875.136719.832031.292969 1.664062.417969 2.496094.679688 4.574218 1.191407 9.15625 1.550781 13.746093.078126.992188.136719 1.984375.199219 2.972657.300781 4.71875.492188 9.441406.457031 14.164062l-.007812.199219c-.039062 4.710937-.300781 9.417969-.675781 14.113281-.078125.929688-.140625 1.855469-.230469 2.785156-.4375 4.65625-1.027344 9.304688-1.796875 13.941406-.113281.6875-.25 1.375-.375 2.0625-.816406 4.625-1.773437 9.234376-2.917969 13.816407-.066406.25-.113281.511719-.179687.765625-.5625 2.210937-1.3125 4.394531-1.953125 6.59375-30.160156 27.519531-76.730469 26.089844-105.148438-3.222656-28.421875-29.3125-28.40625-75.902344.03125-105.199219 28.441406-29.292969 75.007813-30.691407 105.152344-3.15625zm-249.222656-137.675781c.839844-.238282 1.679687-.46875 2.511718-.699219 3.914063-1.082031 7.84375-2.0625 11.792969-2.902344 2.199219-.46875 4.402344-.894531 6.605469-1.285156 3.816406-.679687 7.648438-1.222656 11.484375-1.679687 2.121094-.25 4.238281-.535157 6.363281-.71875 4.480469-.386719 8.972656-.570313 13.464844-.652344 1.523438-.027344 3.050781-.15625 4.574219-.148438.648437 0 1.300781.039063 1.949219.050782 4.289062.0625 8.578124.269531 12.859374.617187.832032.066406 1.660157.109375 2.492188.1875 4.652344.429687 9.292969 1.03125 13.921875 1.796875.863281.140625 1.726563.304688 2.589844.457031 4.683593.835938 9.359375 1.789063 14.003906 2.960938l.222656.050781c2.261719.574219 4.492188 1.34375 6.742188 1.996094 27.519531 30.160156 26.09375 76.730468-3.21875 105.152344-29.3125 28.417968-75.902344 28.40625-105.199219-.03125s-30.695312-75.007813-3.160156-105.152344zm-21.167969-25.921875c.957031-2.101563 2.761719-3.703125 4.96875-4.402344 47.902344-15.5625 99.558594-15.171875 147.21875 1.117187 2.84375.949219 4.96875 3.34375 5.570313 6.28125.597656 2.9375-.414063 5.972657-2.65625 7.960938-2.246094 1.992188-5.378907 2.632812-8.226563 1.683594-.460937-.15625-.933594-.257813-1.398437-.414063-5.109376-1.699219-10.253907-3.238281-15.433594-4.550781-.472656-.117188-.949219-.214844-1.421875-.332031-5.023438-1.234375-10.070313-2.285157-15.144531-3.152344-.625-.105469-1.246094-.238281-1.871094-.339844-5.121094-.832031-10.269532-1.449219-15.421875-1.914062-1.074219-.09375-2.148438-.183594-3.222657-.261719-5.105468-.378906-10.226562-.617188-15.347656-.632812-.21875 0-.433594-.023438-.652344-.023438-.574218 0-1.148437.0625-1.722656.066406-4.382812.035156-8.765625.207032-13.144531.515625-.996094.066407-1.992187.113281-2.988281.199219-4.851563.402344-9.691406.972656-14.523438 1.710938-1.035156.15625-2.0625.34375-3.097656.515624-4.546875.753907-9.078125 1.636719-13.589844 2.683594-.523437.125-1.054687.21875-1.582031.347656-4.726563 1.136719-9.421875 2.476563-14.09375 3.9375-.675781.210938-1.363281.351563-2.039063.570313-4.175781 1.410156-8.726562-.6875-10.363281-4.777344-.894531-2.1875-.828125-4.652343.183594-6.789062zm-116.507813 275.144531c-.890624-3.089844-1.839843-6.167969-2.582031-9.273438-.148437-.617187-.261719-1.234374-.402343-1.847656-.972657-4.253906-1.804688-8.519531-2.492188-12.796875-.132812-.832031-.289062-1.664062-.414062-2.496093-.683594-4.574219-1.191407-9.15625-1.550782-13.746094-.082031-.992188-.136718-1.984375-.199218-2.972656-.300782-4.71875-.496094-9.441407-.457032-14.164063l.003906-.199219c.042969-4.710937.304688-9.417968.679688-14.113281.074219-.929687.140625-1.855469.226562-2.785156.441407-4.65625 1.03125-9.304688 1.800782-13.9375.113281-.691407.25-1.378907.375-2.066407.816406-4.625 1.769531-9.234374 2.917968-13.8125.0625-.253906.113282-.515624.179688-.769531.5625-2.210937 1.3125-4.394531 1.949219-6.59375 30.164062-27.519531 76.730469-26.089843 105.152343 3.222657 28.417969 29.3125 28.402344 75.902343-.035156 105.199218s-75.007812 30.691406-105.152344 3.15625zm-19.105468 21.339844-.027344.007812c-2.183594.898438-4.648438.832032-6.785156-.179687-2.105469-.957031-3.703125-2.761719-4.402344-4.964844-15.570312-47.902344-15.175781-99.5625 1.117188-147.222656.742187-2.222657 2.390624-4.03125 4.539062-4.976563 1.09375-.492187 2.277344-.75 3.476562-.753906 2.691407 0 5.222657 1.296875 6.792969 3.488281 1.566407 2.191407 1.984375 5.003907 1.113281 7.554688-.15625.46875-.261718.949219-.417968 1.421875-1.667969 5.015625-3.191406 10.0625-4.480469 15.144531-.085937.335937-.152344.671875-.234375 1-1.222656 4.90625-2.25 9.839844-3.125 14.792969-.136719.773437-.292969 1.539062-.421875 2.308594-.828125 5.015624-1.476563 10.046874-1.945313 15.09375-.09375.992187-.167968 1.984374-.242187 2.980468-.414063 5.140625-.699219 10.289063-.742187 15.441406v.054688c-.039063 5.160156.167968 10.316406.503906 15.472656.066406 1.019532.121094 2.035156.203125 3.054688.394531 5.023437.949219 10.035156 1.695312 15.035156.125.839844.285157 1.671875.421875 2.507812.765625 4.734376 1.671875 9.449219 2.753906 14.144532.136719.597656.25 1.199218.390626 1.796875 1.160156 4.851562 2.527343 9.671875 4.027343 14.464843.203125.65625.339844 1.324219.550781 1.980469 1.40625 4.167969-.683593 8.707031-4.761718 10.351563zm268.332031 116.332031c-3.070313.890625-6.128906 1.828125-9.214844 2.566406-.699219.167969-1.40625.300781-2.109375.460938-4.113281.9375-8.238281 1.742187-12.378906 2.410156-.949219.15625-1.894531.335937-2.847656.472656-4.46875.664063-8.949219 1.160157-13.4375 1.519531-1.136719.089844-2.273438.152344-3.410156.226563-4.4375.277344-8.878907.449219-13.320313.429687-.453125 0-.90625-.007812-1.355469-.015624-4.433594-.050782-8.859375-.289063-13.28125-.636719-1.078125-.085938-2.152344-.160157-3.230468-.265625-4.554688-.433594-9.097657-1.003906-13.628907-1.757813-.804687-.132812-1.609375-.292969-2.414062-.4375-4.472657-.796875-8.933594-1.722656-13.371094-2.828125-.351563-.082031-.707031-.15625-1.058594-.246094-2.1875-.554687-4.34375-1.296874-6.519531-1.929687-27.519531-30.160156-26.09375-76.730469 3.21875-105.148437 29.3125-28.421876 75.90625-28.40625 105.199219.03125 29.296875 28.4375 30.695312 75.007812 3.160156 105.152343zm21.167969 25.921875c-.960938 2.105469-2.765625 3.703125-4.96875 4.402344-47.902344 15.5625-99.558594 15.171875-147.222656-1.117188-3.902344-1.300781-6.289063-5.238281-5.632813-9.304687.65625-4.0625 4.15625-7.050781 8.273437-7.0625.910157 0 1.8125.152343 2.671876.445312.503906.167969 1.023437.285157 1.53125.453125 5.054687 1.675782 10.136718 3.214844 15.257812 4.511719l.179688.042969c5.070312 1.28125 10.175781 2.324218 15.292968 3.230468.898438.160157 1.792969.332032 2.695313.476563 5.039062.832031 10.097656 1.484375 15.167969 1.957031.867187.082032 1.730468.128906 2.597656.195313 4.675781.375 9.355468.601562 14.039062.671875.6875.011718 1.375.050781 2.066406.054687.359376 0 .71875.027344 1.082032.027344 4.6875 0 9.371094-.210937 14.050781-.519531 1.015625-.066406 2.03125-.140625 3.042969-.21875 5.054687-.402344 10.101562-.949219 15.128906-1.707032.621094-.09375 1.242188-.21875 1.863281-.320312 4.757813-.761719 9.492188-1.683594 14.207031-2.765625.757813-.175781 1.519532-.320313 2.273438-.503906 4.8125-1.15625 9.59375-2.507813 14.355469-3.996094.617187-.195313 1.25-.320313 1.867187-.519531 4.175782-1.410156 8.722656.6875 10.359375 4.777344.898438 2.1875.832031 4.652343-.179687 6.789062zm5.84375-35.972656c19.171875-38.839844 8.769531-85.78125-25.011719-112.882813-33.78125-27.105469-81.863281-27.082031-115.621094.050781-33.757812 27.136719-44.117187 74.089844-24.910156 112.90625-44.777344-20.054687-80.601563-55.894531-100.640625-100.679687 38.835938 19.171875 85.777344 8.769531 112.882812-25.015625 27.101563-33.78125 27.082032-81.863281-.054687-115.621094-27.132813-33.757812-74.085937-44.113281-112.90625-24.90625 20.058594-44.777344 55.898437-80.605468 100.683594-100.644531-19.167969 38.839844-8.769531 85.78125 25.015625 112.882813 33.78125 27.105468 81.863281 27.082031 115.621094-.050782 33.757812-27.136718 44.113281-74.089844 24.90625-112.90625 44.777343 20.058594 80.605468 55.898438 100.644531 100.683594-38.835938-19.171875-85.78125-8.769531-112.882813 25.011719-27.105468 33.78125-27.082031 81.863281.050782 115.621093 27.136718 33.757813 74.089843 44.117188 112.90625 24.910157-20.054688 44.777343-55.894532 80.601562-100.683594 100.640625zm139.867187-108.152344c-1.464843 4.398438-6.21875 6.777344-10.617187 5.308594-4.398438-1.464844-6.773438-6.21875-5.308594-10.617188.160156-.472656.265625-.949218.421875-1.421875 1.667969-5.015625 3.1875-10.0625 4.480469-15.144531.082031-.335938.148437-.671875.234375-1.003906 1.222656-4.90625 2.25-9.839844 3.125-14.789063.136719-.769531.292969-1.539062.417969-2.3125.832031-5.015625 1.480468-10.046875 1.945312-15.09375.09375-.992187.167969-1.984375.246094-2.976562.410156-5.140625.699218-10.289063.738281-15.445313v-.054687c.042969-5.15625-.167969-10.316407-.5-15.46875-.066406-1.019531-.125-2.035157-.203125-3.054688-.394531-5.023437-.953125-10.039062-1.699219-15.039062-.125-.839844-.28125-1.667969-.417969-2.503907-.765624-4.734374-1.683593-9.449218-2.753906-14.148437-.140625-.597656-.25-1.199219-.390625-1.796875-1.160156-4.851562-2.527343-9.667969-4.03125-14.460938-.203125-.65625-.339843-1.324218-.550781-1.980468-1.40625-4.175782.691406-8.722656 4.78125-10.359375 2.183594-.902344 4.648438-.835938 6.785156.179687 2.105469.957032 3.703125 2.761719 4.402344 4.96875 15.570312 47.898438 15.183594 99.558594-1.105469 147.21875zm0 0" data-original="#000000" class="active-path" data-old_color="#000000" fill="#F4EADE"/></g> </svg>
